<svg width="17" height="19" viewBox="0 0 17 19" fill="none" xmlns="http://www.w3.org/2000/svg">
<path d="M13.9711 4.28859L13.9711 4.28859C13.9749 4.29283 13.9836 4.30291 13.995 4.31624C14.026 4.35224 14.0773 4.41197 14.1086 4.4447L14.3975 4.168L14.1078 4.44387C15.5665 5.97535 16.3077 7.81725 16.3392 9.98213C16.3362 10.6622 16.263 11.3235 16.0947 11.9658L16.0943 11.9676C15.6464 13.7092 14.7445 15.1347 13.3725 16.2075L13.3723 16.2076C11.2524 17.8673 8.91221 18.2721 6.37988 17.4969L6.37955 17.4968C4.89574 17.0439 3.66936 16.1469 2.68715 14.8676C1.65255 13.5168 1.10407 11.978 1.04819 10.2453L1.04817 10.2448C1.00066 8.82396 1.29913 7.48842 1.96119 6.25133C2.35515 5.51588 2.77774 4.86587 3.37991 4.38612L3.38112 4.38516C3.68295 4.14279 3.98921 4.05819 4.32784 4.12618C4.79154 4.22028 5.09963 4.48525 5.24529 4.95188C5.38928 5.42537 5.30096 5.82896 4.97117 6.18495L4.96817 6.18818L4.96819 6.1882C4.93785 6.22168 4.9028 6.25269 4.84645 6.30253C4.84174 6.3067 4.83688 6.311 4.83187 6.31544C4.77449 6.36624 4.69482 6.43739 4.62356 6.5252C4.6234 6.52539 4.62324 6.52558 4.62309 6.52577L4.93383 6.77765C4.16983 7.71272 3.76002 8.79752 3.77758 10.026L13.9711 4.28859ZM13.9711 4.28859L13.9692 4.28641C13.5677 3.83279 12.9043 3.75812 12.4358 4.09539L12.4353 4.09572C11.9373 4.45316 11.7683 5.11666 12.0469 5.66837L12.0482 5.6711C12.1101 5.79596 12.2102 5.92301 12.3297 6.04248L12.3315 6.04426C13.768 7.49822 14.3448 9.27351 13.8344 11.3294L13.8343 11.3295C13.3469 13.2894 12.0919 14.5916 10.2447 15.1773L10.2441 15.1775C8.44366 15.7457 6.74781 15.3828 5.2945 14.1614L13.9711 4.28859Z" fill="#FE724C" stroke="white" stroke-width="0.8"/>
<path d="M7.51157 2.34001C7.50572 4.60049 7.50572 5.39447 7.51157 7.6548C7.51383 8.30388 7.98337 8.81693 8.5622 8.87468L8.56372 8.87484C9.17587 8.93829 9.73137 8.52958 9.85699 7.88797L9.85704 7.8877C9.87234 7.80986 9.87586 7.72151 9.87588 7.60222C9.87002 6.49278 9.87002 6.11442 9.87002 5.00522C9.87002 4.59742 9.87041 4.28611 9.87076 4.00153C9.87138 3.50012 9.87189 3.08173 9.87003 2.36487C9.86764 1.86408 9.6557 1.51081 9.24846 1.27722L9.24816 1.27704C8.8563 1.05183 8.47056 1.05995 8.08585 1.3023L8.08585 1.3023L8.08467 1.30304C7.71016 1.53715 7.51157 1.87793 7.51157 2.33897L7.51157 2.34001Z" fill="#FE724C" stroke="white" stroke-width="0.8"/>
</svg>
