<svg width="24" height="25" viewBox="0 0 24 25" fill="none" xmlns="http://www.w3.org/2000/svg">
<path d="M16.4033 8.68005L16.8831 8.82098L15.1963 14.5631C15.1962 14.5634 15.1961 14.5636 15.1961 14.5638L15.196 14.564L16.4033 8.68005ZM16.4033 8.68005L16.8833 8.82001C16.9465 8.60349 16.9494 8.37436 16.8928 8.1569C16.8361 7.93902 16.7214 7.74054 16.5611 7.58258C16.4007 7.42461 16.2006 7.313 15.9819 7.25958C15.7632 7.20615 15.5342 7.21299 15.3191 7.27923L15.319 7.27928L9.64003 9.03025L9.63999 9.03027C9.44637 9.08998 9.26968 9.19613 9.12594 9.33987C8.98241 9.4834 8.87626 9.65971 8.81647 9.85344C8.81645 9.85352 8.81642 9.8536 8.8164 9.85368L7.06061 15.5365L7.53833 15.6841L7.06061 15.5365C6.99405 15.7519 6.98711 15.9814 7.04066 16.2005C7.0942 16.4197 7.20621 16.6202 7.36463 16.7806C7.52314 16.9412 7.72219 17.0557 7.9405 17.112C8.15888 17.1684 8.38814 17.1644 8.60432 17.1007C8.6044 17.1007 8.60448 17.1006 8.60456 17.1006L14.3522 15.4088L16.4033 8.68005ZM3.93998 4.15787C6.06946 2.0284 8.95771 0.832031 11.9692 0.832031C14.9808 0.832031 17.869 2.0284 19.9985 4.15787C22.128 6.28734 23.3242 9.17553 23.3242 12.1871C23.3242 15.1986 22.128 18.0868 19.9985 20.2163C17.869 22.3457 14.9808 23.5421 11.9692 23.5421C8.9577 23.5421 6.06945 22.3457 3.93998 20.2163C1.81051 18.0868 0.614258 15.1986 0.614258 12.1871C0.614258 9.17553 1.81051 6.28734 3.93998 4.15787Z" fill="#D3D1D8" stroke="#D3D1D8"/>
</svg>
